<?xml version="1.0" encoding="utf-8"?>
<!-- Generator: Adobe Illustrator 15.0.0, SVG Export Plug-In . SVG Version: 6.00 Build 0)  -->
<!DOCTYPE svg PUBLIC "-//W3C//DTD SVG 1.1//EN" "http://www.w3.org/Graphics/SVG/1.1/DTD/svg11.dtd">
<svg xmlns="http://www.w3.org/2000/svg" xmlns:xlink="http://www.w3.org/1999/xlink" version="1.1" id="Layer_1" x="0px" y="0px" width="26px" height="26px" viewBox="0 0 26 26" enable-background="new 0 0 26 26" xml:space="preserve">
<g>
	<path fill="#000000" d="M21.702,2c1.585,0,2.875,1.29,2.875,2.875v16.25c0,1.585-1.29,2.875-2.875,2.875H5.452   c-1.585,0-2.875-1.29-2.875-2.875V4.875C2.577,3.29,3.867,2,5.452,2H21.702 M21.702,0H5.452C2.759,0,0.577,2.182,0.577,4.875v16.25   C0.577,23.818,2.759,26,5.452,26h16.25c2.693,0,4.875-2.182,4.875-4.875V4.875C26.577,2.182,24.396,0,21.702,0L21.702,0z"/>
</g>
<rect x="0.577" fill="none" width="26" height="26"/>
<path fill="#000000" d="M22.075,5.871l-1.598-1.087c-0.44-0.296-1.043-0.182-1.341,0.256l-7.823,11.537l-3.596-3.596  c-0.375-0.375-0.987-0.375-1.364,0L4.989,14.35c-0.378,0.376-0.378,0.989,0,1.365l5.526,5.528c0.312,0.31,0.796,0.549,1.234,0.549  c0.439,0,0.88-0.277,1.164-0.69l9.419-13.893C22.631,6.771,22.516,6.169,22.075,5.871z"/>
</svg>
