<?xml version="1.0" encoding="utf-8"?>
<!-- Generator: Adobe Illustrator 17.0.2, SVG Export Plug-In . SVG Version: 6.00 Build 0)  -->
<!DOCTYPE svg PUBLIC "-//W3C//DTD SVG 1.0//EN" "http://www.w3.org/TR/2001/REC-SVG-20010904/DTD/svg10.dtd">
<svg version="1.0" id="Layer_1" xmlns="http://www.w3.org/2000/svg" xmlns:xlink="http://www.w3.org/1999/xlink" x="0px" y="0px"
	 width="50px" height="50px" viewBox="0 0 50 50" style="enable-background:new 0 0 50 50;" xml:space="preserve">
<g>
	<path d="M34.707,15.293c-0.391-0.391-1.023-0.391-1.414,0L25,23.586l-8.293-8.293c-0.391-0.391-1.023-0.391-1.414,0
		s-0.391,1.023,0,1.414L23.586,25l-8.293,8.293c-0.391,0.391-0.391,1.023,0,1.414s1.023,0.391,1.414,0L25,26.414l8.293,8.293
		C33.488,34.902,33.744,35,34,35s0.512-0.098,0.707-0.293c0.391-0.391,0.391-1.023,0-1.414L26.414,25l8.293-8.293
		C35.098,16.316,35.098,15.684,34.707,15.293z"/>
	<path d="M25,0C11.215,0,0,11.215,0,25s11.215,25,25,25s25-11.215,25-25S38.785,0,25,0z M25,48C12.318,48,2,37.683,2,25
		C2,12.318,12.318,2,25,2c12.683,0,23,10.318,23,23C48,37.683,37.683,48,25,48z"/>
</g>
</svg>
