<?xml version="1.0" encoding="utf-8"?>
<!-- Generator: Adobe Illustrator 17.1.0, SVG Export Plug-In . SVG Version: 6.00 Build 0)  -->
<!DOCTYPE svg PUBLIC "-//W3C//DTD SVG 1.0//EN" "http://www.w3.org/TR/2001/REC-SVG-20010904/DTD/svg10.dtd">
<svg xmlns="http://www.w3.org/2000/svg" xmlns:xlink="http://www.w3.org/1999/xlink" version="1.0" id="Layer_1" x="0px" y="0px" viewBox="0 0 26 26" enable-background="new 0 0 26 26" xml:space="preserve">
<path fill="#000000" d="M23.3,21l2.5-2.5c0.2-0.2,0.2-0.7,0-0.9l-1.4-1.4c-0.2-0.2-0.7-0.2-0.9,0L21,18.7l-2.5-2.5  c-0.2-0.2-0.7-0.2-0.9,0l-1.4,1.4c-0.2,0.2-0.2,0.7,0,0.9l2.5,2.5l-2.5,2.5c-0.2,0.2-0.2,0.7,0,0.9l1.4,1.4c0.2,0.2,0.7,0.2,0.9,0  l2.5-2.5l2.5,2.5c0.2,0.2,0.7,0.2,0.9,0l1.4-1.4c0.2-0.2,0.2-0.7,0-0.9L23.3,21z"/>
<path fill="#000000" d="M14.1,23.9c0-0.3,0.1-0.6,0.2-0.9H4c-1.1,0-2-0.9-2-2V4c0-1.1,0.9-2,2-2l6.3,0C11,2.2,11,3.1,11,4v3  c0,0.6,0.4,1,1,1h3c1,0,2,0,2,1v5.3c0.6-0.3,1.4-0.3,2,0V8c0-1.1-1-2.1-2.7-3.8C16,4,15.8,3.7,15.5,3.5C15.3,3.2,15,3,14.8,2.7  C13.1,1,12.1,0,11,0H4C1.8,0,0,1.8,0,4v17c0,2.2,1.8,4,4,4h10.3C14.1,24.7,14.1,24.3,14.1,23.9z"/>
</svg>
