<?xml version="1.0" encoding="utf-8"?>
<!-- Generator: Adobe Illustrator 17.0.2, SVG Export Plug-In . SVG Version: 6.00 Build 0)  -->
<!DOCTYPE svg PUBLIC "-//W3C//DTD SVG 1.0//EN" "http://www.w3.org/TR/2001/REC-SVG-20010904/DTD/svg10.dtd">
<svg version="1.0" id="Layer_1" xmlns="http://www.w3.org/2000/svg" xmlns:xlink="http://www.w3.org/1999/xlink" x="0px" y="0px"
	 width="26px" height="26px" viewBox="0 0 26 26" style="enable-background:new 0 0 26 26;" xml:space="preserve">
<g>
	<path d="M16.871,9.132c0.493,0.493,1.264,0.91,1.705,0.833c0.298-0.049,2.851-2.493,4.105-3.389l1.713,1.716
		c0.182,0.184,0.449,0.248,0.693,0.173c0.248-0.075,0.433-0.276,0.482-0.53c0.638-3.264,0.331-7.052,0.313-7.207
		c-0.016-0.16-0.09-0.305-0.199-0.413c-0.107-0.108-0.25-0.18-0.41-0.198l0,0C25.117,0.1,21.33-0.208,18.062,0.43
		c-0.251,0.05-0.454,0.235-0.53,0.479c-0.074,0.247-0.007,0.513,0.174,0.694l1.718,1.719c-0.892,1.253-3.265,3.875-3.317,4.175
		C16.031,7.939,16.377,8.639,16.871,9.132z"/>
	<path d="M25.57,18.062c-0.05-0.251-0.235-0.454-0.479-0.53c-0.247-0.074-0.513-0.007-0.694,0.174l-1.719,1.718
		c-1.253-0.892-3.875-3.265-4.175-3.317c-0.442-0.076-1.142,0.27-1.635,0.764c-0.493,0.493-0.91,1.264-0.833,1.705
		c0.049,0.298,2.493,2.851,3.389,4.105l-1.716,1.713c-0.184,0.182-0.248,0.449-0.173,0.693c0.075,0.248,0.276,0.433,0.53,0.482
		c3.264,0.638,7.052,0.331,7.207,0.313c0.16-0.016,0.305-0.09,0.413-0.199c0.108-0.107,0.18-0.25,0.198-0.41l0,0
		C25.9,25.117,26.208,21.33,25.57,18.062z"/>
	<path d="M9.129,16.867c-0.494-0.493-1.264-0.91-1.705-0.833c-0.299,0.049-2.852,2.493-4.105,3.389l-1.713-1.716
		c-0.183-0.184-0.45-0.248-0.694-0.173c-0.247,0.075-0.433,0.276-0.482,0.53c-0.638,3.264-0.33,7.052-0.312,7.208
		c0.016,0.16,0.089,0.305,0.198,0.413c0.108,0.108,0.251,0.18,0.411,0.198c0.156,0.017,3.943,0.325,7.211-0.314
		c0.25-0.05,0.454-0.235,0.53-0.479c0.074-0.247,0.007-0.513-0.174-0.694l-1.718-1.719c0.892-1.253,3.265-3.875,3.317-4.175
		C9.969,18.06,9.623,17.36,9.129,16.867z"/>
	<path d="M8.293,1.605c0.184-0.182,0.248-0.449,0.173-0.693C8.391,0.664,8.19,0.479,7.936,0.43C4.672-0.208,0.884,0.1,0.728,0.118
		c-0.16,0.016-0.305,0.09-0.413,0.199c-0.108,0.107-0.18,0.25-0.198,0.41v0C0.1,0.883-0.208,4.67,0.431,7.937
		c0.05,0.251,0.235,0.454,0.479,0.53c0.247,0.074,0.514,0.007,0.694-0.174l1.719-1.717c1.253,0.892,3.875,3.265,4.175,3.317
		c0.441,0.076,1.142-0.27,1.635-0.765c0.493-0.493,0.91-1.264,0.833-1.705C9.917,7.125,7.473,4.572,6.577,3.318L8.293,1.605z"/>
</g>
</svg>
