<?xml version="1.0" encoding="utf-8"?>
<!-- Generator: Adobe Illustrator 17.0.2, SVG Export Plug-In . SVG Version: 6.00 Build 0)  -->
<!DOCTYPE svg PUBLIC "-//W3C//DTD SVG 1.0//EN" "http://www.w3.org/TR/2001/REC-SVG-20010904/DTD/svg10.dtd">
<svg version="1.0" id="Layer_1" xmlns="http://www.w3.org/2000/svg" xmlns:xlink="http://www.w3.org/1999/xlink" x="0px" y="0px"
	 width="21.5px" height="26px" viewBox="0 0 21.5 26" style="enable-background:new 0 0 21.5 26;" xml:space="preserve">
<g>
	<path d="M18,23c0,0.552-0.449,1-1,1H3c-0.551,0-1-0.448-1-1V3c0-0.552,0.449-1,1-1h14c0.551,0,1,0.448,1,1v3.453l2,1.733V3
		c0-1.656-1.344-3-3-3H3C1.344,0,0,1.344,0,3v20c0,1.656,1.344,3,3,3h14c1.656,0,3-1.344,3-3v-5.187l-2,1.734V23z"/>
	<path d="M21.5,13L14,6.5c0,0-1-0.375-1,0.969c0,0.376,0,1.335,0,2.531H7c-0.552,0-1,0.449-1,1v4c0,0.551,0.448,1,1,1h6
		c0,1.243,0,2.21,0,2.5c0,1.281,1,1,1,1v0L21.5,13z"/>
</g>
</svg>
